<svg width="34" height="34" viewBox="0 0 34 34" fill="none" xmlns="http://www.w3.org/2000/svg">
<path fill-rule="evenodd" clip-rule="evenodd" d="M16.5 8.95829C16.5 4.24073 20.3241 0.416626 25.0417 0.416626C29.7592 0.416626 33.5833 4.24073 33.5833 8.95829C33.5833 13.6759 29.7592 17.5 25.0417 17.5H17.3542C17.1276 17.5 16.9104 17.41 16.7502 17.2498C16.59 17.0896 16.5 16.8723 16.5 16.6458V8.95829ZM2.64371 4.68746C2.01473 4.68859 1.41183 4.93895 0.967078 5.38371C0.522322 5.82846 0.271961 6.43136 0.270832 7.06033C0.270832 21.7904 12.2095 33.7291 26.9396 33.7291C27.5686 33.728 28.1715 33.4776 28.6163 33.0329C29.061 32.5881 29.3114 31.9852 29.3125 31.3563V26.057C29.3114 25.428 29.061 24.8251 28.6163 24.3804C28.1715 23.9356 27.5686 23.6853 26.9396 23.6841C25.1906 23.6857 23.4525 23.4086 21.7907 22.8633C21.3735 22.7231 20.9255 22.7022 20.4971 22.8029C20.0687 22.9035 19.6769 23.1218 19.3657 23.433L16.471 26.3278C12.7576 24.2959 9.70394 21.2428 7.67133 17.5299L10.567 14.6342C10.8774 14.3259 11.0968 13.9379 11.2009 13.5129C11.3051 13.0879 11.2899 12.6424 11.1572 12.2255L11.1555 12.2195L11.1538 12.2135C10.6063 10.5507 10.3286 8.81096 10.3312 7.06033C10.3301 6.43136 10.0797 5.82846 9.63496 5.38371C9.19021 4.93895 8.58731 4.68859 7.95833 4.68746H2.64371ZM24.1875 13.2291V9.81246H20.7708V8.10413H24.1875V4.68746H25.8958V8.10413H29.3125V9.81246H25.8958V13.2291H24.1875Z" fill="white"/>
</svg>
